{"accessors":[{"bufferView":0,"componentType":5125,"count":17184,"max":[5041.0],"min":[0.0],"type":"SCALAR"},{"bufferView":1,"componentType":5126,"count":5042,"max":[0.7649890780448914,0.32678279280662539,0.06309064477682114],"min":[-0.7649890780448914,-0.8077892661094666,-0.11885350197553635],"type":"VEC3"},{"bufferView":2,"componentType":5126,"count":5042,"max":[1.0,1.0,1.0],"min":[-1.0,-1.0,-1.0],"type":"VEC3"},{"bufferView":3,"componentType":5125,"count":1386,"max":[585.0],"min":[0.0],"type":"SCALAR"},{"bufferView":4,"componentType":5126,"count":586,"max":[0.7649890780448914,0.09221073985099793,0.06309064477682114],"min":[-0.7649890780448914,-0.8077892661094666,-0.026195421814918519],"type":"VEC3"},{"bufferView":5,"componentType":5126,"count":586,"max":[1.0,0.0,1.0],"min":[-1.0,-0.7071067690849304,-1.0],"type":"VEC3"},{"bufferView":6,"componentType":5125,"count":27990,"max":[7523.0],"min":[0.0],"type":"SCALAR"},{"bufferView":7,"componentType":5126,"count":7524,"max":[0.08250000327825546,0.008941193111240864,0.005739999935030937],"min":[-0.09624999761581421,-0.008978544734418393,-0.005260000005364418],"type":"VEC3"},{"bufferView":8,"componentType":5126,"count":7524,"max":[1.0,1.0,1.0],"min":[-1.0,-1.0,-1.0],"type":"VEC3"},{"bufferView":9,"componentType":5125,"count":27990,"max":[7523.0],"min":[0.0],"type":"SCALAR"},{"bufferView":10,"componentType":5126,"count":7524,"max":[0.08250000327825546,0.008941193111240864,0.005739999935030937],"min":[-0.09624999761581421,-0.008978544734418393,-0.005260000005364418],"type":"VEC3"},{"bufferView":11,"componentType":5126,"count":7524,"max":[1.0,1.0,1.0],"min":[-1.0,-1.0,-1.0],"type":"VEC3"},{"bufferView":12,"componentType":5125,"count":28026,"max":[7413.0],"min":[0.0],"type":"SCALAR"},{"bufferView":13,"componentType":5126,"count":7414,"max":[0.12210000306367874,0.017408596351742746,0.006900360342115164],"min":[-0.1639000028371811,-0.011263402178883553,-0.010699640028178692],"type":"VEC3"},{"bufferView":14,"componentType":5126,"count":7414,"max":[1.0,1.0,1.0],"min":[-1.0,-1.0,-1.0],"type":"VEC3"},{"bufferView":15,"componentType":5125,"count":27990,"max":[7523.0],"min":[0.0],"type":"SCALAR"},{"bufferView":16,"componentType":5126,"count":7524,"max":[0.08250000327825546,0.008941193111240864,0.005739999935030937],"min":[-0.09624999761581421,-0.008978544734418393,-0.005260000005364418],"type":"VEC3"},{"bufferView":17,"componentType":5126,"count":7524,"max":[1.0,1.0,1.0],"min":[-1.0,-1.0,-1.0],"type":"VEC3"},{"bufferView":18,"componentType":5125,"count":27990,"max":[7523.0],"min":[0.0],"type":"SCALAR"},{"bufferView":19,"componentType":5126,"count":7524,"max":[0.08250000327825546,0.008941193111240864,0.005739999935030937],"min":[-0.09624999761581421,-0.008978544734418393,-0.005260000005364418],"type":"VEC3"},{"bufferView":20,"componentType":5126,"count":7524,"max":[1.0,1.0,1.0],"min":[-1.0,-1.0,-1.0],"type":"VEC3"},{"bufferView":21,"componentType":5125,"count":2370,"max":[869.0],"min":[0.0],"type":"SCALAR"},{"bufferView":22,"componentType":5126,"count":870,"max":[0.19620849192142487,-0.33778926730155947,0.0],"min":[0.16620849072933198,-0.4077892601490021,-0.031195422634482385],"type":"VEC3"},{"bufferView":23,"componentType":5126,"count":870,"max":[1.0,1.0,1.0],"min":[-1.0,-1.0,-1.0],"type":"VEC3"},{"bufferView":24,"componentType":5125,"count":882,"max":[329.0],"min":[0.0],"type":"SCALAR"},{"bufferView":25,"componentType":5126,"count":330,"max":[0.19620849192142487,-0.33778926730155947,0.0],"min":[0.16620849072933198,-0.4077892601490021,-0.031195422634482385],"type":"VEC3"},{"bufferView":26,"componentType":5126,"count":330,"max":[1.0,1.0,1.0],"min":[-1.0,-1.0,-1.0],"type":"VEC3"},{"bufferView":27,"componentType":5125,"count":2370,"max":[869.0],"min":[0.0],"type":"SCALAR"},{"bufferView":28,"componentType":5126,"count":870,"max":[-0.16620849072933198,-0.33778926730155947,0.0],"min":[-0.19620849192142487,-0.4077892601490021,-0.031195422634482385],"type":"VEC3"},{"bufferView":29,"componentType":5126,"count":870,"max":[1.0,1.0,1.0],"min":[-1.0,-1.0,-1.0],"type":"VEC3"},{"bufferView":30,"componentType":5125,"count":882,"max":[324.0],"min":[0.0],"type":"SCALAR"},{"bufferView":31,"componentType":5126,"count":325,"max":[-0.16620849072933198,-0.33778926730155947,0.0],"min":[-0.19620849192142487,-0.4077892601490021,-0.031195422634482385],"type":"VEC3"},{"bufferView":32,"componentType":5126,"count":325,"max":[1.0,1.0,1.0],"min":[-1.0,-1.0,-1.0],"type":"VEC3"},{"bufferView":33,"componentType":5125,"count":7134,"max":[1697.0],"min":[0.0],"type":"SCALAR"},{"bufferView":34,"componentType":5126,"count":1698,"max":[0.19121959805488587,0.025996312499046327,-0.0051853288896381859],"min":[0.17120850086212159,0.0,-0.02619200386106968],"type":"VEC3"},{"bufferView":35,"componentType":5126,"count":1698,"max":[1.0,0.9996312260627747,1.0],"min":[-1.0,-1.0,-0.9996581077575684],"type":"VEC3"},{"bufferView":36,"componentType":5125,"count":7134,"max":[1699.0],"min":[0.0],"type":"SCALAR"},{"bufferView":37,"componentType":5126,"count":1700,"max":[-0.17120850086212159,0.025996312499046327,-0.0051853288896381859],"min":[-0.19121959805488587,5.030698080332741e-16,-0.02619200386106968],"type":"VEC3"},{"bufferView":38,"componentType":5126,"count":1700,"max":[1.0,0.9996312260627747,1.0],"min":[-1.0,-1.0,-0.9996581077575684],"type":"VEC3"},{"bufferView":39,"componentType":5125,"count":3768,"max":[1292.0],"min":[0.0],"type":"SCALAR"},{"bufferView":40,"componentType":5126,"count":1293,"max":[0.19620849192142487,-0.687789261341095,0.10999999940395355],"min":[-0.19120849668979646,-0.807789146900177,-0.031195422634482385],"type":"VEC3"},{"bufferView":41,"componentType":5126,"count":1293,"max":[1.0,1.0,1.0],"min":[-1.0,-1.0,-1.0],"type":"VEC3"},{"bufferView":42,"componentType":5125,"count":3132,"max":[1037.0],"min":[0.0],"type":"SCALAR"},{"bufferView":43,"componentType":5126,"count":1038,"max":[0.19620849192142487,-0.6877889633178711,0.10999999940395355],"min":[-0.19613425433635713,-0.807789146900177,-0.031195422634482385],"type":"VEC3"},{"bufferView":44,"componentType":5126,"count":1038,"max":[1.0,1.0,1.0],"min":[-1.0,-0.9986149072647095,-1.0],"type":"VEC3"},{"bufferView":45,"componentType":5125,"count":486,"max":[163.0],"min":[0.0],"type":"SCALAR"},{"bufferView":46,"componentType":5126,"count":164,"max":[0.19620849192142487,-0.7777892351150513,-0.0012089372612535954],"min":[0.16620849072933198,-0.7877892851829529,-0.031181905418634416],"type":"VEC3"},{"bufferView":47,"componentType":5126,"count":164,"max":[0.0,1.0,0.0],"min":[0.0,-1.0,0.0],"type":"VEC3"},{"bufferView":48,"componentType":5125,"count":8034,"max":[1789.0],"min":[0.0],"type":"SCALAR"},{"bufferView":49,"componentType":5126,"count":1790,"max":[0.19620849192142487,-0.7777892351150513,-0.0012089372612535954],"min":[0.16620849072933198,-0.7877892851829529,-0.031181905418634416],"type":"VEC3"},{"bufferView":50,"componentType":5126,"count":1790,"max":[0.9428090453147888,-0.3333333432674408,0.94195955991745],"min":[-0.9428090453147888,-1.0,-0.94195955991745],"type":"VEC3"},{"bufferView":51,"componentType":5125,"count":12510,"max":[3841.0],"min":[0.0],"type":"SCALAR"},{"bufferView":52,"componentType":5126,"count":3842,"max":[1.186877727508545,0.757375955581665,0.04500000178813934],"min":[1.1568776369094849,0.7273786067962647,0.007000000216066837],"type":"VEC3"},{"bufferView":53,"componentType":5126,"count":3842,"max":[1.0,1.0,1.0],"min":[-1.0,-1.0,-1.0],"type":"VEC3"},{"bufferView":54,"componentType":5125,"count":1170,"max":[376.0],"min":[0.0],"type":"SCALAR"},{"bufferView":55,"componentType":5126,"count":377,"max":[1.186877727508545,0.757375955581665,0.027000000700354577],"min":[1.1568776369094849,0.7273786067962647,0.013000000268220902],"type":"VEC3"},{"bufferView":56,"componentType":5126,"count":377,"max":[1.0,0.9999127984046936,0.0],"min":[-1.0,-0.9999127984046936,0.0],"type":"VEC3"},{"bufferView":57,"componentType":5125,"count":1170,"max":[376.0],"min":[0.0],"type":"SCALAR"},{"bufferView":58,"componentType":5126,"count":377,"max":[1.186877727508545,0.757375955581665,0.027000000700354577],"min":[1.1568776369094849,0.7273786067962647,0.013000000268220902],"type":"VEC3"},{"bufferView":59,"componentType":5126,"count":377,"max":[1.0,0.9999127984046936,0.0],"min":[-1.0,-0.9999127984046936,0.0],"type":"VEC3"},{"bufferView":60,"componentType":5125,"count":12510,"max":[3841.0],"min":[0.0],"type":"SCALAR"},{"bufferView":61,"componentType":5126,"count":3842,"max":[1.186877727508545,0.757375955581665,0.04500000178813934],"min":[1.1568776369094849,0.7273786067962647,0.007000000216066837],"type":"VEC3"},{"bufferView":62,"componentType":5126,"count":3842,"max":[1.0,1.0,1.0],"min":[-1.0,-1.0,-1.0],"type":"VEC3"},{"bufferView":63,"componentType":5125,"count":12510,"max":[3841.0],"min":[0.0],"type":"SCALAR"},{"bufferView":64,"componentType":5126,"count":3842,"max":[1.186877727508545,0.757375955581665,0.04500000178813934],"min":[1.1568776369094849,0.7273786067962647,0.007000000216066837],"type":"VEC3"},{"bufferView":65,"componentType":5126,"count":3842,"max":[1.0,1.0,1.0],"min":[-1.0,-1.0,-1.0],"type":"VEC3"},{"bufferView":66,"componentType":5125,"count":1170,"max":[376.0],"min":[0.0],"type":"SCALAR"},{"bufferView":67,"componentType":5126,"count":377,"max":[1.186877727508545,0.757375955581665,0.027000000700354577],"min":[1.1568776369094849,0.7273786067962647,0.013000000268220902],"type":"VEC3"},{"bufferView":68,"componentType":5126,"count":377,"max":[1.0,0.9999127984046936,0.0],"min":[-1.0,-0.9999127984046936,0.0],"type":"VEC3"},{"bufferView":69,"componentType":5125,"count":12510,"max":[3841.0],"min":[0.0],"type":"SCALAR"},{"bufferView":70,"componentType":5126,"count":3842,"max":[1.186877727508545,0.757375955581665,0.04500000178813934],"min":[1.1568776369094849,0.7273786067962647,0.007000000216066837],"type":"VEC3"},{"bufferView":71,"componentType":5126,"count":3842,"max":[1.0,1.0,1.0],"min":[-1.0,-1.0,-1.0],"type":"VEC3"},{"bufferView":72,"componentType":5125,"count":1170,"max":[376.0],"min":[0.0],"type":"SCALAR"},{"bufferView":73,"componentType":5126,"count":377,"max":[1.186877727508545,0.757375955581665,0.027000000700354577],"min":[1.1568776369094849,0.7273786067962647,0.013000000268220902],"type":"VEC3"},{"bufferView":74,"componentType":5126,"count":377,"max":[1.0,0.9999127984046936,0.0],"min":[-1.0,-0.9999127984046936,0.0],"type":"VEC3"},{"bufferView":75,"componentType":5125,"count":12510,"max":[3845.0],"min":[0.0],"type":"SCALAR"},{"bufferView":76,"componentType":5126,"count":3846,"max":[1.1973934173583985,0.7731482982635498,0.05761896073818207],"min":[1.1358460187911988,0.7116062641143799,-0.02034107968211174],"type":"VEC3"},{"bufferView":77,"componentType":5126,"count":3846,"max":[1.0,1.0,1.0],"min":[-1.0,-1.0,-1.0],"type":"VEC3"},{"bufferView":78,"componentType":5125,"count":1170,"max":[376.0],"min":[0.0],"type":"SCALAR"},{"bufferView":79,"componentType":5126,"count":377,"max":[1.1973934173583985,0.7731482982635498,0.020690519362688066],"min":[1.1358460187911988,0.7116062641143799,-0.008031600154936314],"type":"VEC3"},{"bufferView":80,"componentType":5126,"count":377,"max":[1.0,0.9999127984046936,0.0],"min":[-1.0,-0.9999127984046936,0.0],"type":"VEC3"}],"asset":{"generator":"SimLab GLTF","version":"2.0"},"bufferViews":[{"buffer":0,"byteLength":68736,"target":34963},{"buffer":0,"byteLength":60504,"byteOffset":68736,"byteStride":12,"target":34962},{"buffer":0,"byteLength":60504,"byteOffset":129240,"byteStride":12,"target":34962},{"buffer":0,"byteLength":5544,"byteOffset":189744,"target":34963},{"buffer":0,"byteLength":7032,"byteOffset":195288,"byteStride":12,"target":34962},{"buffer":0,"byteLength":7032,"byteOffset":202320,"byteStride":12,"target":34962},{"buffer":0,"byteLength":111960,"byteOffset":209352,"target":34963},{"buffer":0,"byteLength":90288,"byteOffset":321312,"byteStride":12,"target":34962},{"buffer":0,"byteLength":90288,"byteOffset":411600,"byteStride":12,"target":34962},{"buffer":0,"byteLength":111960,"byteOffset":501888,"target":34963},{"buffer":0,"byteLength":90288,"byteOffset":613848,"byteStride":12,"target":34962},{"buffer":0,"byteLength":90288,"byteOffset":704136,"byteStride":12,"target":34962},{"buffer":0,"byteLength":112104,"byteOffset":794424,"target":34963},{"buffer":0,"byteLength":88968,"byteOffset":906528,"byteStride":12,"target":34962},{"buffer":0,"byteLength":88968,"byteOffset":995496,"byteStride":12,"target":34962},{"buffer":0,"byteLength":111960,"byteOffset":1084464,"target":34963},{"buffer":0,"byteLength":90288,"byteOffset":1196424,"byteStride":12,"target":34962},{"buffer":0,"byteLength":90288,"byteOffset":1286712,"byteStride":12,"target":34962},{"buffer":0,"byteLength":111960,"byteOffset":1377000,"target":34963},{"buffer":0,"byteLength":90288,"byteOffset":1488960,"byteStride":12,"target":34962},{"buffer":0,"byteLength":90288,"byteOffset":1579248,"byteStride":12,"target":34962},{"buffer":0,"byteLength":9480,"byteOffset":1669536,"target":34963},{"buffer":0,"byteLength":10440,"byteOffset":1679016,"byteStride":12,"target":34962},{"buffer":0,"byteLength":10440,"byteOffset":1689456,"byteStride":12,"target":34962},{"buffer":0,"byteLength":3528,"byteOffset":1699896,"target":34963},{"buffer":0,"byteLength":3960,"byteOffset":1703424,"byteStride":12,"target":34962},{"buffer":0,"byteLength":3960,"byteOffset":1707384,"byteStride":12,"target":34962},{"buffer":0,"byteLength":9480,"byteOffset":1711344,"target":34963},{"buffer":0,"byteLength":10440,"byteOffset":1720824,"byteStride":12,"target":34962},{"buffer":0,"byteLength":10440,"byteOffset":1731264,"byteStride":12,"target":34962},{"buffer":0,"byteLength":3528,"byteOffset":1741704,"target":34963},{"buffer":0,"byteLength":3900,"byteOffset":1745232,"byteStride":12,"target":34962},{"buffer":0,"byteLength":3900,"byteOffset":1749132,"byteStride":12,"target":34962},{"buffer":0,"byteLength":28536,"byteOffset":1753032,"target":34963},{"buffer":0,"byteLength":20376,"byteOffset":1781568,"byteStride":12,"target":34962},{"buffer":0,"byteLength":20376,"byteOffset":1801944,"byteStride":12,"target":34962},{"buffer":0,"byteLength":28536,"byteOffset":1822320,"target":34963},{"buffer":0,"byteLength":20400,"byteOffset":1850856,"byteStride":12,"target":34962},{"buffer":0,"byteLength":20400,"byteOffset":1871256,"byteStride":12,"target":34962},{"buffer":0,"byteLength":15072,"byteOffset":1891656,"target":34963},{"buffer":0,"byteLength":15516,"byteOffset":1906728,"byteStride":12,"target":34962},{"buffer":0,"byteLength":15516,"byteOffset":1922244,"byteStride":12,"target":34962},{"buffer":0,"byteLength":12528,"byteOffset":1937760,"target":34963},{"buffer":0,"byteLength":12456,"byteOffset":1950288,"byteStride":12,"target":34962},{"buffer":0,"byteLength":12456,"byteOffset":1962744,"byteStride":12,"target":34962},{"buffer":0,"byteLength":1944,"byteOffset":1975200,"target":34963},{"buffer":0,"byteLength":1968,"byteOffset":1977144,"byteStride":12,"target":34962},{"buffer":0,"byteLength":1968,"byteOffset":1979112,"byteStride":12,"target":34962},{"buffer":0,"byteLength":32136,"byteOffset":1981080,"target":34963},{"buffer":0,"byteLength":21480,"byteOffset":2013216,"byteStride":12,"target":34962},{"buffer":0,"byteLength":21480,"byteOffset":2034696,"byteStride":12,"target":34962},{"buffer":0,"byteLength":50040,"byteOffset":2056176,"target":34963},{"buffer":0,"byteLength":46104,"byteOffset":2106216,"byteStride":12,"target":34962},{"buffer":0,"byteLength":46104,"byteOffset":2152320,"byteStride":12,"target":34962},{"buffer":0,"byteLength":4680,"byteOffset":2198424,"target":34963},{"buffer":0,"byteLength":4524,"byteOffset":2203104,"byteStride":12,"target":34962},{"buffer":0,"byteLength":4524,"byteOffset":2207628,"byteStride":12,"target":34962},{"buffer":0,"byteLength":4680,"byteOffset":2212152,"target":34963},{"buffer":0,"byteLength":4524,"byteOffset":2216832,"byteStride":12,"target":34962},{"buffer":0,"byteLength":4524,"byteOffset":2221356,"byteStride":12,"target":34962},{"buffer":0,"byteLength":50040,"byteOffset":2225880,"target":34963},{"buffer":0,"byteLength":46104,"byteOffset":2275920,"byteStride":12,"target":34962},{"buffer":0,"byteLength":46104,"byteOffset":2322024,"byteStride":12,"target":34962},{"buffer":0,"byteLength":50040,"byteOffset":2368128,"target":34963},{"buffer":0,"byteLength":46104,"byteOffset":2418168,"byteStride":12,"target":34962},{"buffer":0,"byteLength":46104,"byteOffset":2464272,"byteStride":12,"target":34962},{"buffer":0,"byteLength":4680,"byteOffset":2510376,"target":34963},{"buffer":0,"byteLength":4524,"byteOffset":2515056,"byteStride":12,"target":34962},{"buffer":0,"byteLength":4524,"byteOffset":2519580,"byteStride":12,"target":34962},{"buffer":0,"byteLength":50040,"byteOffset":2524104,"target":34963},{"buffer":0,"byteLength":46104,"byteOffset":2574144,"byteStride":12,"target":34962},{"buffer":0,"byteLength":46104,"byteOffset":2620248,"byteStride":12,"target":34962},{"buffer":0,"byteLength":4680,"byteOffset":2666352,"target":34963},{"buffer":0,"byteLength":4524,"byteOffset":2671032,"byteStride":12,"target":34962},{"buffer":0,"byteLength":4524,"byteOffset":2675556,"byteStride":12,"target":34962},{"buffer":0,"byteLength":50040,"byteOffset":2680080,"target":34963},{"buffer":0,"byteLength":46152,"byteOffset":2730120,"byteStride":12,"target":34962},{"buffer":0,"byteLength":46152,"byteOffset":2776272,"byteStride":12,"target":34962},{"buffer":0,"byteLength":4680,"byteOffset":2822424,"target":34963},{"buffer":0,"byteLength":4524,"byteOffset":2827104,"byteStride":12,"target":34962},{"buffer":0,"byteLength":4524,"byteOffset":2831628,"byteStride":12,"target":34962}],"buffers":[{"byteLength":2836152,"uri":"Ares Vtol.bin"}],"extensionsUsed":["KHR_materials_pbrSpecularGlossiness"],"materials":[{"extensions":{"KHR_materials_pbrSpecularGlossiness":{"diffuseFactor":[1.0,0.42352941632270815,0.18431372940540315,1.0],"specularFactor":[1.0,0.42352941632270815,0.18431372940540315],"glossinessFactor":0.5}},"name":"Mtl1","alphaMode":"MASK","doubleSided":true,"pbrMetallicRoughness":{"baseColorFactor":[1.0,0.42352941632270815,0.18431372940540315,1.0],"metallicFactor":0.5,"roughnessFactor":0.5}},{"extensions":{"KHR_materials_pbrSpecularGlossiness":{"diffuseFactor":[0.09803921729326248,0.09803921729326248,0.09803921729326248,1.0],"specularFactor":[0.09803921729326248,0.09803921729326248,0.09803921729326248],"glossinessFactor":0.5}},"name":"Mtl2","alphaMode":"MASK","doubleSided":true,"pbrMetallicRoughness":{"baseColorFactor":[0.09803921729326248,0.09803921729326248,0.09803921729326248,1.0],"metallicFactor":0.5,"roughnessFactor":0.5}},{"extensions":{"KHR_materials_pbrSpecularGlossiness":{"diffuseFactor":[0.9647058844566345,0.9647058844566345,0.9529411792755127,1.0],"specularFactor":[0.48235294222831728,0.48235294222831728,0.47647058963775637],"glossinessFactor":0.5}},"name":"Mtl3","alphaMode":"MASK","doubleSided":true,"pbrMetallicRoughness":{"baseColorFactor":[0.9647058844566345,0.9647058844566345,0.9529411792755127,1.0],"metallicFactor":0.5,"roughnessFactor":0.5}},{"extensions":{"KHR_materials_pbrSpecularGlossiness":{"diffuseFactor":[0.9647058844566345,0.9647058844566345,0.9529411792755127,1.0],"specularFactor":[0.48235294222831728,0.48235294222831728,0.47647058963775637],"glossinessFactor":0.5}},"name":"Mtl4","alphaMode":"MASK","doubleSided":true,"pbrMetallicRoughness":{"baseColorFactor":[0.9647058844566345,0.9647058844566345,0.9529411792755127,1.0],"metallicFactor":0.5,"roughnessFactor":0.5}},{"extensions":{"KHR_materials_pbrSpecularGlossiness":{"diffuseFactor":[1.0,0.42352941632270815,0.18431372940540315,1.0],"specularFactor":[0.5,0.21176470816135407,0.09215686470270157],"glossinessFactor":0.5}},"name":"Mtl5","alphaMode":"MASK","doubleSided":true,"pbrMetallicRoughness":{"baseColorFactor":[1.0,0.42352941632270815,0.18431372940540315,1.0],"metallicFactor":0.5,"roughnessFactor":0.5}},{"extensions":{"KHR_materials_pbrSpecularGlossiness":{"diffuseFactor":[0.9647058844566345,0.9647058844566345,0.9529411792755127,1.0],"specularFactor":[0.48235294222831728,0.48235294222831728,0.47647058963775637],"glossinessFactor":0.5}},"name":"Mtl6","alphaMode":"MASK","doubleSided":true,"pbrMetallicRoughness":{"baseColorFactor":[0.9647058844566345,0.9647058844566345,0.9529411792755127,1.0],"metallicFactor":0.5,"roughnessFactor":0.5}},{"extensions":{"KHR_materials_pbrSpecularGlossiness":{"diffuseFactor":[0.9647058844566345,0.9647058844566345,0.9529411792755127,1.0],"specularFactor":[0.48235294222831728,0.48235294222831728,0.47647058963775637],"glossinessFactor":0.5}},"name":"Mtl7","alphaMode":"MASK","doubleSided":true,"pbrMetallicRoughness":{"baseColorFactor":[0.9647058844566345,0.9647058844566345,0.9529411792755127,1.0],"metallicFactor":0.5,"roughnessFactor":0.5}},{"extensions":{"KHR_materials_pbrSpecularGlossiness":{"diffuseFactor":[0.6274510025978088,0.6274510025978088,0.6274510025978088,1.0],"specularFactor":[0.6274510025978088,0.6274510025978088,0.6274510025978088],"glossinessFactor":0.5}},"name":"Mtl9","alphaMode":"MASK","doubleSided":true,"pbrMetallicRoughness":{"baseColorFactor":[0.6274510025978088,0.6274510025978088,0.6274510025978088,1.0],"metallicFactor":0.5,"roughnessFactor":0.5}},{"extensions":{"KHR_materials_pbrSpecularGlossiness":{"diffuseFactor":[1.0,0.42352941632270815,0.18431372940540315,1.0],"specularFactor":[1.0,0.42352941632270815,0.18431372940540315],"glossinessFactor":0.5}},"name":"Mtla","alphaMode":"MASK","doubleSided":true,"pbrMetallicRoughness":{"baseColorFactor":[1.0,0.42352941632270815,0.18431372940540315,1.0],"metallicFactor":0.5,"roughnessFactor":0.5}},{"extensions":{"KHR_materials_pbrSpecularGlossiness":{"diffuseFactor":[0.6274510025978088,0.6274510025978088,0.6274510025978088,1.0],"specularFactor":[0.3137255012989044,0.3137255012989044,0.3137255012989044],"glossinessFactor":0.5}},"name":"Mtlb","alphaMode":"MASK","doubleSided":true,"pbrMetallicRoughness":{"baseColorFactor":[0.6274510025978088,0.6274510025978088,0.6274510025978088,1.0],"metallicFactor":0.5,"roughnessFactor":0.5}},{"extensions":{"KHR_materials_pbrSpecularGlossiness":{"diffuseFactor":[0.09803921729326248,0.09803921729326248,0.09803921729326248,1.0],"specularFactor":[0.09803921729326248,0.09803921729326248,0.09803921729326248],"glossinessFactor":0.5}},"name":"Mtl11","alphaMode":"MASK","doubleSided":true,"pbrMetallicRoughness":{"baseColorFactor":[0.09803921729326248,0.09803921729326248,0.09803921729326248,1.0],"metallicFactor":0.5,"roughnessFactor":0.5}},{"extensions":{"KHR_materials_pbrSpecularGlossiness":{"diffuseFactor":[1.0,0.42352941632270815,0.18431372940540315,1.0],"specularFactor":[1.0,0.42352941632270815,0.18431372940540315],"glossinessFactor":0.5}},"name":"Mtl12","alphaMode":"MASK","doubleSided":true,"pbrMetallicRoughness":{"baseColorFactor":[1.0,0.42352941632270815,0.18431372940540315,1.0],"metallicFactor":0.5,"roughnessFactor":0.5}},{"extensions":{"KHR_materials_pbrSpecularGlossiness":{"diffuseFactor":[0.6274510025978088,0.6274510025978088,0.6274510025978088,1.0],"specularFactor":[0.6274510025978088,0.6274510025978088,0.6274510025978088],"glossinessFactor":0.5}},"name":"Mtl13","alphaMode":"MASK","doubleSided":true,"pbrMetallicRoughness":{"baseColorFactor":[0.6274510025978088,0.6274510025978088,0.6274510025978088,1.0],"metallicFactor":0.5,"roughnessFactor":0.5}},{"extensions":{"KHR_materials_pbrSpecularGlossiness":{"diffuseFactor":[0.1725490242242813,0.1725490242242813,0.1725490242242813,1.0],"specularFactor":[0.1725490242242813,0.1725490242242813,0.1725490242242813],"glossinessFactor":0.5}},"name":"Mtl15","alphaMode":"MASK","doubleSided":true,"pbrMetallicRoughness":{"baseColorFactor":[0.1725490242242813,0.1725490242242813,0.1725490242242813,1.0],"metallicFactor":0.5,"roughnessFactor":0.5}},{"extensions":{"KHR_materials_pbrSpecularGlossiness":{"diffuseFactor":[0.019607843831181527,0.5803921818733215,0.9529411792755127,1.0],"specularFactor":[0.019607843831181527,0.5803921818733215,0.9529411792755127],"glossinessFactor":0.5}},"name":"Mtl16","alphaMode":"MASK","doubleSided":true,"pbrMetallicRoughness":{"baseColorFactor":[0.019607843831181527,0.5803921818733215,0.9529411792755127,1.0],"metallicFactor":0.5,"roughnessFactor":0.5}},{"extensions":{"KHR_materials_pbrSpecularGlossiness":{"diffuseFactor":[0.019607843831181527,0.5803921818733215,0.9529411792755127,1.0],"specularFactor":[0.019607843831181527,0.5803921818733215,0.9529411792755127],"glossinessFactor":0.5}},"name":"Mtl19","alphaMode":"MASK","doubleSided":true,"pbrMetallicRoughness":{"baseColorFactor":[0.019607843831181527,0.5803921818733215,0.9529411792755127,1.0],"metallicFactor":0.5,"roughnessFactor":0.5}},{"extensions":{"KHR_materials_pbrSpecularGlossiness":{"diffuseFactor":[0.1725490242242813,0.1725490242242813,0.1725490242242813,1.0],"specularFactor":[0.1725490242242813,0.1725490242242813,0.1725490242242813],"glossinessFactor":0.5}},"name":"Mtl18","alphaMode":"MASK","doubleSided":true,"pbrMetallicRoughness":{"baseColorFactor":[0.1725490242242813,0.1725490242242813,0.1725490242242813,1.0],"metallicFactor":0.5,"roughnessFactor":0.5}},{"extensions":{"KHR_materials_pbrSpecularGlossiness":{"diffuseFactor":[0.1725490242242813,0.1725490242242813,0.1725490242242813,1.0],"specularFactor":[0.1725490242242813,0.1725490242242813,0.1725490242242813],"glossinessFactor":0.5}},"name":"Mtl1b","alphaMode":"MASK","doubleSided":true,"pbrMetallicRoughness":{"baseColorFactor":[0.1725490242242813,0.1725490242242813,0.1725490242242813,1.0],"metallicFactor":0.5,"roughnessFactor":0.5}},{"extensions":{"KHR_materials_pbrSpecularGlossiness":{"diffuseFactor":[0.019607843831181527,0.5803921818733215,0.9529411792755127,1.0],"specularFactor":[0.019607843831181527,0.5803921818733215,0.9529411792755127],"glossinessFactor":0.5}},"name":"Mtl20","alphaMode":"MASK","doubleSided":true,"pbrMetallicRoughness":{"baseColorFactor":[0.019607843831181527,0.5803921818733215,0.9529411792755127,1.0],"metallicFactor":0.5,"roughnessFactor":0.5}},{"extensions":{"KHR_materials_pbrSpecularGlossiness":{"diffuseFactor":[0.1725490242242813,0.1725490242242813,0.1725490242242813,1.0],"specularFactor":[0.1725490242242813,0.1725490242242813,0.1725490242242813],"glossinessFactor":0.5}},"name":"Mtl22","alphaMode":"MASK","doubleSided":true,"pbrMetallicRoughness":{"baseColorFactor":[0.1725490242242813,0.1725490242242813,0.1725490242242813,1.0],"metallicFactor":0.5,"roughnessFactor":0.5}},{"extensions":{"KHR_materials_pbrSpecularGlossiness":{"diffuseFactor":[0.019607843831181527,0.5803921818733215,0.9529411792755127,1.0],"specularFactor":[0.019607843831181527,0.5803921818733215,0.9529411792755127],"glossinessFactor":0.5}},"name":"Mtl23","alphaMode":"MASK","doubleSided":true,"pbrMetallicRoughness":{"baseColorFactor":[0.019607843831181527,0.5803921818733215,0.9529411792755127,1.0],"metallicFactor":0.5,"roughnessFactor":0.5}},{"extensions":{"KHR_materials_pbrSpecularGlossiness":{"diffuseFactor":[0.1725490242242813,0.1725490242242813,0.1725490242242813,1.0],"specularFactor":[0.1725490242242813,0.1725490242242813,0.1725490242242813],"glossinessFactor":0.5}},"name":"Mtl25","alphaMode":"MASK","doubleSided":true,"pbrMetallicRoughness":{"baseColorFactor":[0.1725490242242813,0.1725490242242813,0.1725490242242813,1.0],"metallicFactor":0.5,"roughnessFactor":0.5}},{"extensions":{"KHR_materials_pbrSpecularGlossiness":{"diffuseFactor":[0.019607843831181527,0.5803921818733215,0.9529411792755127,1.0],"specularFactor":[0.019607843831181527,0.5803921818733215,0.9529411792755127],"glossinessFactor":0.5}},"name":"Mtl26","alphaMode":"MASK","doubleSided":true,"pbrMetallicRoughness":{"baseColorFactor":[0.019607843831181527,0.5803921818733215,0.9529411792755127,1.0],"metallicFactor":0.5,"roughnessFactor":0.5}}],"meshes":[{"primitives":[{"attributes":{"NORMAL":2,"POSITION":1},"indices":0,"material":0,"mode":4}]},{"primitives":[{"attributes":{"NORMAL":5,"POSITION":4},"indices":3,"material":1,"mode":4}]},{"primitives":[{"attributes":{"NORMAL":8,"POSITION":7},"indices":6,"material":2,"mode":4}]},{"primitives":[{"attributes":{"NORMAL":11,"POSITION":10},"indices":9,"material":3,"mode":4}]},{"primitives":[{"attributes":{"NORMAL":14,"POSITION":13},"indices":12,"material":4,"mode":4}]},{"primitives":[{"attributes":{"NORMAL":17,"POSITION":16},"indices":15,"material":5,"mode":4}]},{"primitives":[{"attributes":{"NORMAL":20,"POSITION":19},"indices":18,"material":6,"mode":4}]},{"primitives":[{"attributes":{"NORMAL":23,"POSITION":22},"indices":21,"material":7,"mode":4}]},{"primitives":[{"attributes":{"NORMAL":26,"POSITION":25},"indices":24,"material":8,"mode":4}]},{"primitives":[{"attributes":{"NORMAL":29,"POSITION":28},"indices":27,"material":7,"mode":4}]},{"primitives":[{"attributes":{"NORMAL":32,"POSITION":31},"indices":30,"material":8,"mode":4}]},{"primitives":[{"attributes":{"NORMAL":35,"POSITION":34},"indices":33,"material":9,"mode":4}]},{"primitives":[{"attributes":{"NORMAL":38,"POSITION":37},"indices":36,"material":9,"mode":4}]},{"primitives":[{"attributes":{"NORMAL":41,"POSITION":40},"indices":39,"material":10,"mode":4}]},{"primitives":[{"attributes":{"NORMAL":44,"POSITION":43},"indices":42,"material":11,"mode":4}]},{"primitives":[{"attributes":{"NORMAL":47,"POSITION":46},"indices":45,"material":12,"mode":4}]},{"primitives":[{"attributes":{"NORMAL":50,"POSITION":49},"indices":48,"material":11,"mode":4}]},{"primitives":[{"attributes":{"NORMAL":53,"POSITION":52},"indices":51,"material":13,"mode":4}]},{"primitives":[{"attributes":{"NORMAL":56,"POSITION":55},"indices":54,"material":14,"mode":4}]},{"primitives":[{"attributes":{"NORMAL":59,"POSITION":58},"indices":57,"material":15,"mode":4}]},{"primitives":[{"attributes":{"NORMAL":62,"POSITION":61},"indices":60,"material":16,"mode":4}]},{"primitives":[{"attributes":{"NORMAL":65,"POSITION":64},"indices":63,"material":17,"mode":4}]},{"primitives":[{"attributes":{"NORMAL":68,"POSITION":67},"indices":66,"material":18,"mode":4}]},{"primitives":[{"attributes":{"NORMAL":71,"POSITION":70},"indices":69,"material":19,"mode":4}]},{"primitives":[{"attributes":{"NORMAL":74,"POSITION":73},"indices":72,"material":20,"mode":4}]},{"primitives":[{"attributes":{"NORMAL":77,"POSITION":76},"indices":75,"material":21,"mode":4}]},{"primitives":[{"attributes":{"NORMAL":80,"POSITION":79},"indices":78,"material":22,"mode":4}]}],"nodes":[{"children":[1,2],"matrix":[1.0,0.0,0.0,0.0,0.0,4.4896593387466768e-11,-1.0,0.0,0.0,1.0,4.4896593387466768e-11,0.0,0.0,0.0,0.0,1.0]},{"extras":{},"name":"Camera-1","rotation":[-0.7071067690849304,0.0,0.0,-0.7071067690849304],"translation":[0.0,-6.115485668182373,-0.2405032366514206]},{"extras":{},"name":"uav fixed wing vtol v7.step-1","children":[3,7,9,11,13,15,17,24,27,34,38,42,46,50],"rotation":[0.0,0.0,0.0,-1.0]},{"extras":{},"name":"body.step-1","children":[4],"rotation":[-0.7071067690849304,0.0,0.0,-0.7071067690849304]},{"extras":{},"name":"Body_1","children":[5,6],"rotation":[0.0,0.0,0.0,-1.0]},{"extras":{},"name":"3DGeom-87","mesh":0,"rotation":[0.0,0.0,0.0,-1.0]},{"extras":{},"name":"3DGeom-88","mesh":1,"rotation":[0.0,0.0,0.0,-1.0]},{"extras":{},"name":"propeller 2.step-1","children":[8],"rotation":[0.7071067094802856,0.0003570333356037736,-0.0003570333356037736,-0.7071067094802856],"translation":[0.18950174748897553,-0.02663622424006462,0.10819459706544876]},{"extras":{},"name":"Body_1","mesh":2,"rotation":[0.0,0.0,0.0,-1.0]},{"extras":{},"name":"propeller 2 (1).step-1","children":[10],"rotation":[0.7071067094802856,-0.0003570333356037736,0.0003570333356037736,-0.7071067094802856],"translation":[-0.17300176620483399,-0.02665288746356964,0.10819459706544876]},{"extras":{},"name":"Body_1","mesh":3,"rotation":[0.0,0.0,0.0,-1.0]},{"extras":{},"name":"propeller 2 (2).step-1","children":[12],"rotation":[-5.1390332634143208e-17,-4.883008356858297e-16,0.16319213807582856,-0.9865943193435669],"translation":[0.02087889052927494,0.006228415761142969,-0.2731572389602661]},{"extras":{},"name":"Body_1","mesh":4,"rotation":[0.0,0.0,0.0,-1.0]},{"extras":{},"name":"propeller 2 (3).step-1","children":[14],"rotation":[0.7071067690849304,-7.07106757197475e-16,7.07106757197475e-16,-0.7071067690849304],"translation":[0.18945848941802979,-0.0318400003015995,-0.3728053867816925]},{"extras":{},"name":"Body_1","mesh":5,"rotation":[0.0,0.0,0.0,-1.0]},{"extras":{},"name":"propeller 2 (4).step-1","children":[16],"rotation":[0.7071067690849304,0.0,0.0,-0.7071067690849304],"translation":[-0.17295849323272706,-0.029740000143647195,-0.3728053867816925]},{"extras":{},"name":"Body_1","mesh":6,"rotation":[0.0,0.0,0.0,-1.0]},{"extras":{},"name":"Component10.step-1","children":[18,21],"rotation":[-0.7071067690849304,0.0,0.0,-0.7071067690849304]},{"extras":{},"name":"Body_1","children":[19,20],"rotation":[0.0,0.0,0.0,-1.0]},{"extras":{},"name":"3DGeom-195","mesh":7,"rotation":[0.0,0.0,0.0,-1.0]},{"extras":{},"name":"3DGeom-196","mesh":8,"rotation":[0.0,0.0,0.0,-1.0]},{"extras":{},"name":"Body_2","children":[22,23],"rotation":[0.0,0.0,0.0,-1.0]},{"extras":{},"name":"3DGeom-211","mesh":9,"rotation":[0.0,0.0,0.0,-1.0]},{"extras":{},"name":"3DGeom-212","mesh":10,"rotation":[0.0,0.0,0.0,-1.0]},{"extras":{},"name":"mounts (1).step-1","children":[25,26],"rotation":[-0.7071067690849304,0.0,0.0,-0.7071067690849304],"translation":[0.0,5.6462790265956199e-18,0.09221073985099793]},{"extras":{},"name":"Body_1","mesh":11,"rotation":[0.0,0.0,0.0,-1.0]},{"extras":{},"name":"Body_2","mesh":12,"rotation":[0.0,0.0,0.0,-1.0]},{"extras":{},"name":"Component14.step-1","children":[28,31],"rotation":[-0.7071067690849304,0.0,0.0,-0.7071067690849304]},{"extras":{},"name":"Body_1","children":[29,30],"rotation":[0.0,0.0,0.0,-1.0]},{"extras":{},"name":"3DGeom-268","mesh":13,"rotation":[0.0,0.0,0.0,-1.0]},{"extras":{},"name":"3DGeom-269","mesh":14,"rotation":[0.0,0.0,0.0,-1.0]},{"extras":{},"name":"Body_2","children":[32,33],"rotation":[0.0,0.0,0.0,-1.0]},{"extras":{},"name":"3DGeom-273","mesh":15,"rotation":[0.0,0.0,0.0,-1.0]},{"extras":{},"name":"3DGeom-274","mesh":16,"rotation":[0.0,0.0,0.0,-1.0]},{"extras":{},"name":"motor.step-1","children":[35],"rotation":[-0.7071067094802856,-0.0003570333356037736,-0.0003570333356037736,-0.7071067094802856],"translation":[-0.990664541721344,0.011012012138962746,-0.6341665387153626]},{"extras":{},"name":"Body_1","children":[36,37],"rotation":[0.0,0.0,0.0,-1.0]},{"extras":{},"name":"3DGeom-387","mesh":17,"rotation":[0.0,0.0,0.0,-1.0]},{"extras":{},"name":"3DGeom-388","mesh":18,"rotation":[0.0,0.0,0.0,-1.0]},{"extras":{},"name":"motor (1).step-1","children":[39],"rotation":[-0.7071067690849304,0.0,0.0,-0.7071067690849304],"translation":[-0.9906691908836365,0.007000000216066837,-1.1151665449142457]},{"extras":{},"name":"Body_1","children":[40,41],"rotation":[0.0,0.0,0.0,-1.0]},{"extras":{},"name":"3DGeom-501","mesh":19,"rotation":[0.0,0.0,0.0,-1.0]},{"extras":{},"name":"3DGeom-502","mesh":20,"rotation":[0.0,0.0,0.0,-1.0]},{"extras":{},"name":"motor (2).step-1","children":[43],"rotation":[-0.7071067690849304,0.0,0.0,-0.7071067690849304],"translation":[-1.3530861139297486,0.00800000037997961,-1.1151665449142457]},{"extras":{},"name":"Body_1","children":[44,45],"rotation":[0.0,0.0,0.0,-1.0]},{"extras":{},"name":"3DGeom-615","mesh":21,"rotation":[0.0,0.0,0.0,-1.0]},{"extras":{},"name":"3DGeom-616","mesh":22,"rotation":[0.0,0.0,0.0,-1.0]},{"extras":{},"name":"motor (3).step-1","children":[47],"rotation":[-0.7071067094802856,0.0003570333356037736,0.0003570333356037736,-0.7071067094802856],"translation":[-1.3530895709991456,0.013378836214542389,-0.6341665387153626]},{"extras":{},"name":"Body_1","children":[48,49],"rotation":[0.0,0.0,0.0,-1.0]},{"extras":{},"name":"3DGeom-729","mesh":23,"rotation":[0.0,0.0,0.0,-1.0]},{"extras":{},"name":"3DGeom-730","mesh":24,"rotation":[0.0,0.0,0.0,-1.0]},{"extras":{},"name":"motor (4).step-1","children":[51],"rotation":[1.0,0.0,0.0,3.0616171314629199e-17],"translation":[-1.1666197776794434,0.7589569091796875,-0.2303410768508911]},{"extras":{},"name":"Body_1","children":[52,53],"rotation":[0.0,0.0,0.0,-1.0]},{"extras":{},"name":"3DGeom-843","mesh":25,"rotation":[0.0,0.0,0.0,-1.0]},{"extras":{},"name":"3DGeom-844","mesh":26,"rotation":[0.0,0.0,0.0,-1.0]}],"scene":0,"scenes":[{"nodes":[0]}]}